<?xml version="1.0" encoding="utf-8"?>
<!-- Generator: Adobe Illustrator 27.7.0, SVG Export Plug-In . SVG Version: 6.00 Build 0)  -->
<svg version="1.1" id="Layer_1" xmlns="http://www.w3.org/2000/svg" xmlns:xlink="http://www.w3.org/1999/xlink" x="0px" y="0px"
	 viewBox="0 0 512 512" style="enable-background:new 0 0 512 512;" xml:space="preserve">
<style type="text/css">
	.st0{fill:#DB3A3C;}
	.st1{fill:#FF5752;}
</style>
<path class="st0" d="M263,0c6.4,0.5,12.5,0.8,18.9,1.9c2.4,0.4,4.8,0.7,7.2,1.1c6.3,0.9,12.4,2.8,18.5,4.3
	c5.2,1.3,10.1,3.4,15.2,5.1c3.7,1.3,7.3,2.8,10.9,4.5c43.9,21.3,75.2,53.9,93.8,97.6c3.3,7.7,6.3,17.4,9.2,29.2
	c1.6,6.5,2.4,13.2,3.5,19.9c0.9,5.6,0.6,11,1.1,16.4c0.3,3.7,0.3,7.6,0.1,11.9c-0.4,7-1,12.8-1.6,17.3c-4,26.7-12.7,53.1-23.9,78
	c-2.5,5.7-6.1,13.1-10.6,22.5c-3.8,7.8-7.9,15.2-12,22.8c-3.2,5.9-6.3,11.5-9.4,16.7c-18.1,30.5-37.8,59.8-59.1,88
	c-19.8,26.2-36.7,47.1-56.1,69.6c-2.1,2.4-5.1,4.2-9.2,5.4H256l0-233.2c50,0.2,92.6-40.7,93.3-90.9c0.1-6-0.1-10.6-0.6-13.9
	c-3.4-24.1-14-43.9-31.9-59.3c-14.3-12.3-31.1-19.7-50-22c-4.1-0.5-7.7-0.7-10.8-0.5c0,0,0,0.1,0,0.1L256,0H263z"/>
<path class="st1" d="M256,0l0,92.2c-19.6,0.2-37.1,5.6-52.4,16.2c-45.8,31.6-54.9,96.2-17.6,138.5c18.1,20.4,41.4,31.1,70,32
	l0,233.2h-1.3c-4.9-0.6-9-2.9-12.4-6.9c-11.5-13.4-20.9-24.8-28.3-34c-9.5-11.8-18.9-23.9-28.1-36.1c-16-21.3-31.5-43.9-46.6-67.9
	c-11.5-18.3-21.6-36.1-30.3-53.4c-4.1-8.1-8.2-16.5-12.1-25.2c-7.5-16.5-14-34.5-19.3-54.1c-8.7-31.6-9.1-62.9-1.3-94.1
	c1.8-7.3,3.9-13.9,6.1-19.7c16.6-42.9,44.9-75.5,84.8-97.8c20.3-11.3,42.5-18.5,66.8-21.4c3.1-0.4,6.4-0.7,9.8-0.8
	c3.3-0.2,6.5-0.4,9.7-0.7H256z"/>
</svg>
